<?xml version="1.0" encoding="UTF-8"?>
<svg id="Layer_2" data-name="Layer 2" xmlns="http://www.w3.org/2000/svg" viewBox="0 0 946.67 523.26">
  <defs>
    <style>
      .cls-1 {
        fill: #fabb20;
      }

      .cls-2 {
        fill: #e9407b;
      }

      .cls-3 {
        fill: #fff;
      }

      .cls-4 {
        fill: #6559a2;
      }

      .cls-5 {
        fill: #432984;
      }

      .cls-6 {
        fill: #48bdce;
      }

      .cls-7 {
        fill: #2e2052;
      }

      .cls-8 {
        fill: #49bcce;
      }
    </style>
  </defs>
  <g id="Layer_1-2" data-name="Layer 1">
    <g>
      <g>
        <path class="cls-7" d="m843.04,55.33c-.88-1.14-1.89-2.32-3-3.5-9.86-10.56-23.17-16.37-37.49-16.37-11.12,0-23.46,3.53-31.38,11.65-.23.23-.47.48-.79.55-.52.11.09-.33-2.98-1.68-3.09-1.36-2.56-.76-3.05-1.66-.21-.4-.28-.86-.35-1.31-.56-3.72-1.28-7.07-2.68-10.57s-3.01-6.51-4.99-9.49c-7.6-11.43-19.21-19.22-32.65-21.93-1.41-.29-2.94-.53-4.55-.7-1.91-.21-3.85-.32-5.76-.32-11.81,0-23.32,4.1-32.42,11.55-9.16,7.5-15.5,18.09-17.85,29.85-1.51,7.61-1.32,15.22.57,22.63-1.46.04-2.92.15-4.35.31-1.43.16-2.96.4-4.55.73-26.29,5.38-43.8,29.57-40.73,56.27,1.24,10.73,5.69,20.58,12.86,28.48.22.25.46.52.7.8.03.04,34.81,36.92,34.81,36.92,2.61,2.76,6.14,4.28,9.94,4.28.51,0,1.02-.03,1.52-.08.04,0,.08,0,.13-.02.05,0,.11-.02.16-.03.7,2.25,5.11,18.08-.73,42.47-2.03-3.42-4.38-6.48-8.56-9.25-4.13-2.74-7.7-4.02-11.27-3.97-5.1.05-9.67,3.26-10.86,7.65-1.06,3.92.62,8.47,4.19,11.32,3.27,2.61,7.3,3.42,10.05,3.8.32.04.64.08.96.11-6.43,3.16-13.97,8.08-20.74,15.63-1.12,1.25-1.02,3.18.23,4.3,1.25,1.13,3.18,1.02,4.3-.23,6.67-7.44,14.27-12.09,20.44-14.93-7.68,8.12-17.65,20.2-20.72,30.86-.47,1.62.47,3.31,2.08,3.77.28.08.57.12.85.12,1.32,0,2.54-.87,2.93-2.2,2.84-9.84,12.84-21.61,20.19-29.27-2.53,7.82-3.92,18.46,1.73,28.22.56.98,1.59,1.52,2.64,1.52.52,0,1.04-.13,1.52-.41,1.46-.84,1.95-2.71,1.11-4.16-5.83-10.08-2.1-21.98.84-28.48.16.25.32.51.47.76.36.62.71,1.24,1.06,1.86,1.12,1.98,2.27,4.03,3.63,6,4.43,6.41,10.29,10.02,16.06,10.02.79,0,1.59-.07,2.38-.21.8-.14,1.98-.42,3.07-1.22,1.43-1.06,2.32-2.73,2.64-4.98.97-6.82-2.93-14.14-9.72-18.23-1.57-.94-3.21-1.69-4.88-2.28,11.29-4.08,27.43-13.71,42.72-36.41,2.24,1.49,4.87,2.3,7.62,2.3.53,0,1.07-.03,1.62-.09l50.23-6.01c11.11-1.35,21.24-6.14,29.29-13.82,1.06-1,2.14-2.12,3.21-3.34,1.08-1.22,2-2.37,2.84-3.53.07-.1.14-.21.22-.33.08-.12.17-.24.25-.36.35-.46.63-.88.86-1.23l.21-.31c.5-.72.96-1.46,1.37-2.22.41-.65.8-1.36,1.19-2.18.37-.69.68-1.35.95-1.94l.09-.19c.34-.7.77-1.62,1.12-2.59l.19-.51c.19-.52.39-1.03.57-1.56,1.77-5.04,2.73-10.33,2.86-15.71.2-7.86-1.37-15.49-4.51-22.44.85-.23,1.64-.63,2.33-1.2.9-.74,1.68-1.43,2.39-2.09,1.19-1.11,2.23-2.17,3.17-3.23.08-.09.16-.19.25-.3.1-.11.19-.22.28-.33.39-.42.71-.81.97-1.13l.24-.29c.57-.67,1.1-1.37,1.58-2.08.47-.6.93-1.28,1.4-2.06.44-.65.81-1.29,1.15-1.85l.1-.17c.41-.66.92-1.54,1.36-2.46l.24-.48c.25-.5.49-.99.72-1.51,2.25-4.85,3.72-10.02,4.37-15.36,1.69-13.63-2.04-27.1-10.47-37.91Zm-158.87,129.66l14.64-25.11c1.31,4.93,2.17,8.18,2.17,8.18.88,3.28,2.82,6.08,5.49,8.04-.04.22-.06.44-.04.67.01.28.99,26.73-25.99,53.93,4.77-24.15.08-39.29-.55-41.17,1.73-1.14,3.19-2.68,4.29-4.54Zm-33.43,50.16c-1.41-1.13-2.59-3.19-2.11-4.96.53-1.95,2.98-3.14,5.04-3.15h.08c2.27,0,4.74.94,7.77,2.95h0c3.5,2.32,5.28,4.79,7.18,8.13-3.75.05-7.33.05-10.87-.44-3.24-.45-5.49-1.25-7.08-2.52Zm47.88,24.77c-.09.66-.24.92-.22.94-.05.02-.19.07-.51.13-4.82.84-9.55-3.2-12.37-7.28-1.2-1.73-2.24-3.58-3.34-5.53-.36-.64-.72-1.28-1.09-1.91-.38-.66-.79-1.29-1.21-1.9,5.01.43,8.78,1.52,11.9,3.4,4.64,2.8,7.45,7.79,6.83,12.15Zm-14.53-24.24c25.32-25.04,28.17-49.5,28.42-56.97.87.16,1.76.24,2.65.24h0c2.7,0,5.35-.74,7.69-2.15l7.05-4.29-3.01,17.73c-.53,3.17.06,6.34,1.62,9.05-16.51,25.07-34.19,33.52-44.41,36.38Z"/>
        <path class="cls-8" d="m789.29,76.27c2.31,5.08,3.72,10.31,4.31,15.6.1.8.15,1.55.23,2.34.09.85.1,1.75.09,2.6,0,.8.03,1.67-.02,2.48,0,.83-.03,1.68-.14,2.47-.03.82-.12,1.65-.25,2.44-.11.68-.17,1.31-.33,1.98-.03.32-.11.59-.14.91-.27,1.46-.63,2.92-1.05,4.37-.43,1.47-.92,2.96-1.48,4.4-4.05,10.49-11.33,19.16-20.94,25.08l-49.62,30.45c-2.34,1.42-5.2,1.7-7.82.73-2.6-1.02-4.54-3.09-5.31-5.74l-16.14-55.73c-.1-.38-.2-.77-.28-1.12-2.83-10.47-2.23-21.33,1.69-31.47,9.77-25.17,37.07-38.42,63.48-30.79,1.48.43,2.99.92,4.46,1.49,13.11,5.06,23.52,14.81,29.26,27.51Z"/>
        <path class="cls-2" d="m827.57,166.17c.24-.65.48-1.27.71-1.93,1.54-4.39,2.41-9.03,2.53-13.88.31-12.11-4.13-23.59-12.45-32.35-.93-.98-1.92-1.93-2.91-2.8-4.22-3.72-8.93-6.51-13.89-8.4l-.03.16c-.08.47-.17,1.09-.33,1.79-.03.14-.05.29-.08.43-.03.17-.06.34-.09.51-.34,1.68-.79,3.4-1.36,5.26-.57,1.87-1.2,3.63-1.86,5.23-4.97,12.32-13.66,22.52-25.1,29.46l-36.98,22.34-3.31,19.54c-.4,2.37.33,4.71,1.98,6.46,1.68,1.71,4.01,2.54,6.38,2.26l50.22-6.01c9.74-1.18,18.69-5.39,25.81-12.19.98-.93,1.93-1.92,2.82-2.93.87-.99,1.71-2.02,2.47-3.07.14-.24.31-.43.45-.66.38-.47.66-.94,1-1.44.41-.57.79-1.2,1.12-1.84.39-.59.73-1.25,1.04-1.9.35-.62.66-1.31.95-1.95.33-.67.65-1.38.91-2.09Z"/>
        <path class="cls-5" d="m669.23,63.28c5.49.45,10.9,1.75,15.97,3.87,1.37.58,1.35.27,2.67.96,13.45-23.72,42.12-34.76,68.83-28.41-.03-.09-.05-.18-.08-.28-1.26-4.48-3.22-8.78-5.91-12.81-6.71-10.09-16.93-16.93-28.78-19.32-1.32-.27-2.68-.47-3.99-.62-23.48-2.59-44.7,12.97-49.33,36.17-1.37,6.87-1.14,13.81.63,20.43Z"/>
        <path class="cls-4" d="m682.59,113.46c-.11-.41-.21-.82-.3-1.2-3.26-12.33-2.57-25.22,2-37.28,0-.02.01-.03.02-.05-7.65-3.72-16.19-5.21-24.84-4.23-1.34.15-2.7.37-3.99.64-23.14,4.74-38.57,26.05-35.87,49.56,1.1,9.47,5.01,18.15,11.38,25.14.2.24.43.5.66.75l34.69,36.8c1.65,1.75,3.96,2.57,6.35,2.31,2.38-.31,4.44-1.67,5.65-3.72l16.03-27.5c-4.7-16.44-11.77-41.16-11.78-41.21Z"/>
        <path class="cls-1" d="m802.06,91.61c.07.68.11,1.34.16,2l.04.58c.1,1.27.08,2.51.06,3.46v.22c0,.44-.01.95-.03,1.49.66.06,1.32.21,1.95.45.34.13.67.26,1.01.4,5.54,2.25,10.64,5.4,15.16,9.38,1.24,1.1,2.39,2.2,3.41,3.28,2.72,2.86,5.06,5.97,7.04,9.28.72-.6,1.43-1.21,2.11-1.85.97-.9,1.9-1.84,2.76-2.81.17-.22.35-.39.51-.62.42-.43.75-.87,1.14-1.34.46-.53.9-1.11,1.29-1.72.44-.55.85-1.17,1.23-1.79.41-.59.78-1.24,1.14-1.85.39-.64.79-1.31,1.11-1.99.3-.62.61-1.21.89-1.86,1.96-4.22,3.28-8.75,3.87-13.57,1.49-12.02-1.81-23.88-9.24-33.41-.83-1.07-1.73-2.1-2.63-3.07-14.86-15.91-38.31-18.87-56.48-7.82,8.23,6.38,14.74,14.79,18.89,24.65,2.5,5.91,4.06,12.14,4.62,18.5Z"/>
        <path class="cls-3" d="m704.25,88.95c-.41,0-.83-.08-1.24-.23-1.75-.68-2.61-2.65-1.93-4.4,14.8-37.94,52.23-29.07,52.6-28.97,1.82.46,2.93,2.3,2.47,4.12-.46,1.82-2.3,2.93-4.12,2.47-1.29-.32-32.02-7.44-44.62,24.85-.52,1.34-1.81,2.17-3.17,2.17Z"/>
        <path class="cls-3" d="m628.96,125.02c-1.85,0-3.37-1.48-3.4-3.34-.7-40.28,32.53-42.14,32.87-42.15,1.88-.07,3.46,1.38,3.54,3.26.08,1.87-1.38,3.46-3.25,3.54-1.09.05-26.93,1.72-26.35,35.24.03,1.88-1.46,3.42-3.34,3.46h-.06Z"/>
        <path class="cls-3" d="m807.79,178.51c-.81,0-1.63-.29-2.28-.88-1.39-1.26-1.5-3.41-.24-4.8,22.51-24.85,4.16-43.12,3.37-43.88-1.35-1.3-1.39-3.45-.1-4.8,1.3-1.35,3.44-1.4,4.79-.11.24.23,24.03,23.52-3.02,53.37-.67.74-1.59,1.12-2.52,1.12Z"/>
        <path class="cls-3" d="m682.55,38.44c-.21,0-.41-.02-.62-.08-1.37-.34-2.2-1.73-1.85-3.09,2.95-11.79,16.24-21.03,30.25-21.03,1.41,0,2.55,1.14,2.55,2.55s-1.14,2.55-2.55,2.55c-11.59,0-22.94,7.7-25.3,17.17-.29,1.16-1.33,1.93-2.47,1.93Z"/>
        <path class="cls-3" d="m837.72,92.67c-.24,0-.49-.03-.73-.11-1.35-.4-2.12-1.82-1.72-3.17,2.78-9.35-3.07-21.76-13.04-27.66-1.21-.72-1.61-2.28-.9-3.49.72-1.21,2.28-1.62,3.49-.9,12.06,7.13,18.8,21.85,15.33,33.5-.33,1.11-1.34,1.82-2.44,1.82Z"/>
      </g>
      <path class="cls-6" d="m30.88,286.85c0,9.17-5.11,13.76-15.33,13.76s-15.55-4.59-15.55-13.76c0-4.1,1.6-7.5,4.81-10.18,2.98-2.53,6.56-3.8,10.74-3.8s7.77,1.31,10.8,3.91c3.02,2.61,4.53,5.97,4.53,10.07Z"/>
      <path class="cls-7" d="m27.21,313.85c0,4.59-.28,11.53-.85,20.81-.57,9.28-.85,16.24-.85,20.9,0,4.36.09,10.87.27,19.55.18,8.68.27,15.17.27,19.46,0,1.25-.54,1.88-1.61,1.88H6.98c-1.25,0-1.88-1.22-1.88-3.67,0-4.12.1-10.3.31-18.57.21-8.26.31-14.48.31-18.66,0-4.65-.34-11.63-1.03-20.94-.69-9.31-1.03-16.29-1.03-20.94,0-1.01.63-1.52,1.88-1.52,1.07,0,2.73.15,4.97.45,2.24.3,3.92.45,5.06.45s2.82-.15,5.06-.45c2.24-.3,3.92-.45,5.06-.45,1.01,0,1.52.57,1.52,1.7Z"/>
      <path class="cls-7" d="m120.61,394.84c0,1.31-.6,1.97-1.79,1.97-1.97,0-4.91-.03-8.81-.09-3.91-.06-6.85-.09-8.81-.09-1.07,0-1.61-.86-1.61-2.59,0-2.92.09-7.37.27-13.33.18-5.97.27-10.44.27-13.42,0-2.39-.03-5.95-.09-10.69-.06-4.74-.09-8.31-.09-10.69,0-6.8-.98-11.6-2.95-14.41-2.39-3.34-6.8-5.01-13.24-5.01-2.98,0-7.13,1.67-12.44,5.01-5.61,3.52-8.41,6.65-8.41,9.4v53.69c0,1.49-.57,2.24-1.7,2.24-1.91,0-4.77-.03-8.59-.09-3.82-.06-6.68-.09-8.59-.09-1.25,0-1.88-.68-1.88-2.06,0-4.71.07-11.78.22-21.21.15-9.43.22-16.53.22-21.3,0-12.71-1.34-24.43-4.03-35.17-.18-.54-.27-.92-.27-1.16,0-.6.39-1.01,1.16-1.25.42-.06,3.83-.61,10.25-1.66,6.41-1.04,9.77-1.57,10.07-1.57.36,0,.6.48.72,1.43.3,3.7.98,7.43,2.06,11.19,3.1-2.45,7.19-5.49,12.26-9.13,6.26-3.82,12.32-5.73,18.17-5.73,11.22,0,18.88,3.25,23,9.75,3.04,4.77,4.56,12.5,4.56,23.18,0,1.85-.04,4.68-.13,8.5-.09,3.82-.13,6.68-.13,8.59,0,4,.06,9.96.18,17.9.12,7.94.18,13.9.18,17.9Z"/>
      <path class="cls-7" d="m178.4,369.07c0,8.89-3.55,16.02-10.65,21.39-6.44,4.89-14.29,7.34-23.54,7.34-3.58,0-5.61-.09-6.09-.27-1.01-.48-1.52-1.94-1.52-4.39,0-1.31-.17-3.28-.49-5.91-.33-2.62-.49-4.56-.49-5.82,0-.77.54-1.28,1.61-1.52.78-.18,1.88-.18,3.31,0,1.85.18,2.74.27,2.68.27,11.28,0,16.91-3.46,16.91-10.38,0-3.28-2.48-6.29-7.43-9.04-8.05-4.41-12.68-7.13-13.87-8.14-4.95-4.24-7.43-9.78-7.43-16.65,0-8.95,3.37-15.93,10.11-20.94,6.08-4.47,13.78-6.71,23.09-6.71.83,0,1.45.39,1.83,1.16.39.78,1.13,3.19,2.24,7.25,1.1,4.06,1.66,6.5,1.66,7.34,0,.66-.57,1.07-1.7,1.25-3.82.54-7.67,1.04-11.54,1.52-4.59,1.25-6.89,3.76-6.89,7.52,0,2.68,2.42,5.4,7.25,8.14,7.16,4,11.69,6.89,13.6,8.68,4.89,4.65,7.34,10.62,7.34,17.9Z"/>
      <path class="cls-7" d="m239.08,380.16c0,1.31-.12,3.1-.36,5.37-.3,2.81-.48,4.62-.54,5.46-.06,1.07-.15,1.73-.27,1.97-.24.42-.8.84-1.7,1.25-4.89,2.33-12.59,3.49-23.09,3.49-13.96,0-20.94-6.32-20.94-18.97,0-5.07.12-12.69.36-22.86.24-10.17.36-17.79.36-22.87,0-2.45-1.22-3.76-3.67-3.94-2.21,0-4.39-.03-6.53-.09-1.25-.3-1.88-2.74-1.88-7.34,0-1.73.12-3.55.36-5.46.18-1.43,1.13-2.3,2.86-2.6,1.49,0,2.95-.03,4.39-.09,2.74-.12,4.12-1.34,4.12-3.67s-.08-6.02-.22-10.92c-.15-4.89-.22-8.56-.22-11.01,0-4.35.83-6.53,2.51-6.53.54,0,6.14.93,16.82,2.77,1.37.18,2.06.84,2.06,1.97,0,2.63-.19,6.56-.58,11.81-.39,5.25-.58,9.19-.58,11.81,0,1.73.81,2.6,2.42,2.6h21.48c1.01,0,1.52.36,1.52,1.07s-.1,1.87-.31,3.45c-.21,1.58-.31,2.76-.31,3.54,0,.9.03,2.27.09,4.12.06,1.85.09,3.22.09,4.12,0,1.13-.84,1.7-2.51,1.7-2.39,0-6-.16-10.83-.49-4.83-.33-8.44-.49-10.83-.49-.48,0-.84,1.7-1.07,5.1-.3,4.24-.45,10.17-.45,17.81v13.33c0,5.13.48,8.71,1.43,10.74,1.43,3.1,4.39,4.65,8.86,4.65,1.85,0,4.56-.4,8.14-1.21s6.23-1.21,7.96-1.21c.72,0,1.07.54,1.07,1.61Z"/>
      <path class="cls-7" d="m336.18,315.64c0,.24-.09.78-.27,1.61-2.33,13.66-3.49,25.45-3.49,35.35,0,.6.75,13.99,2.24,40.18l.09,1.25c.06,1.73-.73,2.59-2.37,2.59s-4.12.19-7.43.58c-3.31.39-5.77.58-7.38.58-1.13,0-2-2.09-2.59-6.26-.6-4.18-1.16-6.26-1.7-6.26-.36,0-1.97,1.16-4.83,3.49-3.52,2.86-6.8,5.04-9.84,6.53-4.71,2.39-9.43,3.58-14.14,3.58-11.58,0-21.33-4.62-29.26-13.87-7.52-8.83-11.28-19.12-11.28-30.87,0-13.24,3.79-24.19,11.37-32.84,7.93-9.01,18.37-13.51,31.32-13.51,9.13,0,17.09,3.16,23.89,9.49,1.01,1.19,2.6,2.92,4.74,5.19.18.18.36.27.54.27.36,0,.86-1.88,1.52-5.64.66-3.76,1.49-5.64,2.51-5.64,1.61,0,4.62.45,9.04,1.34,4.89,1.07,7.34,2.03,7.34,2.86Zm-22.82,37.41c0-7.34-2.18-13.63-6.53-18.88-4.59-5.67-10.47-8.5-17.63-8.5s-13.13,2.8-17.9,8.41c-4.59,5.37-6.89,11.69-6.89,18.97s2.3,13.48,6.89,18.79c4.77,5.55,10.74,8.32,17.9,8.32s12.83-2.83,17.54-8.5c4.41-5.31,6.62-11.51,6.62-18.61Z"/>
      <path class="cls-7" d="m437.34,353.4c0,11.81-3.67,22.1-11.01,30.87-7.82,9.31-17.54,13.96-29.17,13.96-7.76,0-14.59-1.97-20.49-5.91-2.39-2.03-4.77-4.03-7.16-6-.66.18-1.09,1.97-1.3,5.37-.21,3.4-.7,5.1-1.48,5.1h-18.88c-.72,0-1.07-.39-1.07-1.16,0,.06.06-.48.18-1.61.95-9.55,1.43-27.8,1.43-54.77,0-11.04-.48-27.23-1.43-48.59-.6-13.6-.9-19.57-.9-17.9,0-1.55.77-2.42,2.33-2.59,2.15-.06,5.34-.18,9.58-.36.83-.06,2.53-.27,5.1-.63,2.15-.36,3.88-.54,5.19-.54.95,0,1.43.69,1.43,2.06,0,2.03-.15,5.13-.45,9.31-.3,4.18-.45,7.31-.45,9.4,0,3.1-.13,7.77-.4,14.01-.27,6.23-.4,10.9-.4,14.01,0,2.27.42,3.4,1.25,3.4.42,0,.86-.33,1.34-.98,6.56-8.17,15.24-12.26,26.04-12.26,12.35,0,22.34,4.62,29.98,13.87,7.16,8.71,10.74,19.36,10.74,31.95Zm-20.22-.8c0-7.1-2.24-13.36-6.71-18.79-4.77-5.79-10.65-8.68-17.63-8.68s-13.13,2.83-17.9,8.5c-4.59,5.37-6.89,11.69-6.89,18.97s2.3,13.78,6.89,19.15c4.77,5.61,10.8,8.41,18.08,8.41s12.92-2.89,17.63-8.68c4.35-5.37,6.53-11.66,6.53-18.88Z"/>
      <path class="cls-7" d="m536.17,315.64c0,.24-.09.78-.27,1.61-2.33,13.66-3.49,25.45-3.49,35.35,0,.6.75,13.99,2.24,40.18l.09,1.25c.06,1.73-.73,2.59-2.37,2.59s-4.12.19-7.43.58c-3.31.39-5.77.58-7.38.58-1.13,0-2-2.09-2.59-6.26-.6-4.18-1.16-6.26-1.7-6.26-.36,0-1.97,1.16-4.83,3.49-3.52,2.86-6.8,5.04-9.84,6.53-4.71,2.39-9.43,3.58-14.14,3.58-11.58,0-21.33-4.62-29.26-13.87-7.52-8.83-11.28-19.12-11.28-30.87,0-13.24,3.79-24.19,11.37-32.84,7.93-9.01,18.37-13.51,31.32-13.51,9.13,0,17.09,3.16,23.89,9.49,1.01,1.19,2.6,2.92,4.74,5.19.18.18.36.27.54.27.36,0,.86-1.88,1.52-5.64.66-3.76,1.49-5.64,2.51-5.64,1.61,0,4.62.45,9.04,1.34,4.89,1.07,7.34,2.03,7.34,2.86Zm-22.82,37.41c0-7.34-2.18-13.63-6.53-18.88-4.59-5.67-10.47-8.5-17.63-8.5s-13.13,2.8-17.9,8.41c-4.59,5.37-6.89,11.69-6.89,18.97s2.3,13.48,6.89,18.79c4.77,5.55,10.74,8.32,17.9,8.32s12.83-2.83,17.54-8.5c4.41-5.31,6.62-11.51,6.62-18.61Z"/>
      <path class="cls-7" d="m568.68,272.51l-.09,1.16c-1.31,22.19-1.97,41.25-1.97,57.18,0,7.1.12,17.73.36,31.9.24,14.17.36,24.77.36,31.81,0,1.37-.48,2.06-1.43,2.06h-17.09c-1.07,0-1.61-.68-1.61-2.06,0-7.04.06-17.64.18-31.81.12-14.17.18-24.8.18-31.9,0-6.44-.31-16.12-.94-29.04-.63-12.92-.94-22.57-.94-28.95,0-1.19.63-1.79,1.88-1.79,1.07,0,2.69.09,4.83.27,2.15.18,3.76.27,4.83.27,1.13,0,2.8-.09,5.01-.27,2.21-.18,3.85-.27,4.92-.27s1.58.48,1.52,1.43Z"/>
      <path class="cls-7" d="m609.04,272.51l-.09,1.16c-1.31,22.19-1.97,41.25-1.97,57.18,0,7.1.12,17.73.36,31.9.24,14.17.36,24.77.36,31.81,0,1.37-.48,2.06-1.43,2.06h-17.09c-1.07,0-1.61-.68-1.61-2.06,0-7.04.06-17.64.18-31.81.12-14.17.18-24.8.18-31.9,0-6.44-.31-16.12-.94-29.04-.63-12.92-.94-22.57-.94-28.95,0-1.19.63-1.79,1.88-1.79,1.07,0,2.69.09,4.83.27,2.15.18,3.76.27,4.83.27,1.13,0,2.8-.09,5.01-.27,2.21-.18,3.85-.27,4.92-.27s1.58.48,1.52,1.43Z"/>
      <path class="cls-7" d="m704.68,353.05c0,12.47-4.09,23.12-12.26,31.95-8.35,9.13-18.7,13.69-31.05,13.69s-22.79-4.53-31.14-13.6c-8.17-8.77-12.26-19.39-12.26-31.86s4.09-23.09,12.26-31.86c8.41-8.95,18.79-13.42,31.14-13.42s22.61,4.47,30.96,13.42c8.23,8.71,12.35,19.27,12.35,31.68Zm-18.88.18c0-7.28-2.24-13.48-6.71-18.61-4.65-5.43-10.56-8.14-17.72-8.14s-13.1,2.69-17.81,8.05c-4.47,5.19-6.71,11.43-6.71,18.7s2.27,13.36,6.8,18.61c4.77,5.55,10.68,8.32,17.72,8.32s13.01-2.77,17.72-8.32c4.47-5.25,6.71-11.45,6.71-18.61Z"/>
      <path class="cls-7" d="m798.38,353.05c0,12.47-4.09,23.12-12.26,31.95-8.35,9.13-18.7,13.69-31.05,13.69s-22.79-4.53-31.14-13.6c-8.17-8.77-12.26-19.39-12.26-31.86s4.09-23.09,12.26-31.86c8.41-8.95,18.79-13.42,31.14-13.42s22.61,4.47,30.96,13.42c8.23,8.71,12.35,19.27,12.35,31.68Zm-18.88.18c0-7.28-2.24-13.48-6.71-18.61-4.65-5.43-10.56-8.14-17.72-8.14s-13.1,2.69-17.81,8.05c-4.47,5.19-6.71,11.43-6.71,18.7s2.27,13.36,6.8,18.61c4.77,5.55,10.68,8.32,17.72,8.32s13.01-2.77,17.72-8.32c4.47-5.25,6.71-11.45,6.71-18.61Z"/>
      <path class="cls-7" d="m887.79,394.84c0,1.31-.6,1.97-1.79,1.97-1.97,0-4.91-.03-8.81-.09-3.91-.06-6.85-.09-8.81-.09-1.07,0-1.61-.86-1.61-2.59,0-2.92.09-7.37.27-13.33.18-5.97.27-10.44.27-13.42,0-2.39-.03-5.95-.09-10.69-.06-4.74-.09-8.31-.09-10.69,0-6.8-.98-11.6-2.95-14.41-2.39-3.34-6.8-5.01-13.24-5.01-2.98,0-7.13,1.67-12.44,5.01-5.61,3.52-8.41,6.65-8.41,9.4v53.69c0,1.49-.57,2.24-1.7,2.24-1.91,0-4.77-.03-8.59-.09-3.82-.06-6.68-.09-8.59-.09-1.25,0-1.88-.68-1.88-2.06,0-4.71.07-11.78.22-21.21.15-9.43.22-16.53.22-21.3,0-12.71-1.34-24.43-4.03-35.17-.18-.54-.27-.92-.27-1.16,0-.6.39-1.01,1.16-1.25.42-.06,3.83-.61,10.25-1.66,6.41-1.04,9.77-1.57,10.07-1.57.36,0,.6.48.72,1.43.3,3.7.98,7.43,2.06,11.19,3.1-2.45,7.19-5.49,12.26-9.13,6.26-3.82,12.32-5.73,18.17-5.73,11.22,0,18.88,3.25,23,9.75,3.04,4.77,4.56,12.5,4.56,23.18,0,1.85-.04,4.68-.13,8.5-.09,3.82-.13,6.68-.13,8.59,0,4,.06,9.96.18,17.9.12,7.94.18,13.9.18,17.9Z"/>
      <path class="cls-7" d="m946.67,369.07c0,8.89-3.55,16.02-10.65,21.39-6.44,4.89-14.29,7.34-23.54,7.34-3.58,0-5.61-.09-6.09-.27-1.01-.48-1.52-1.94-1.52-4.39,0-1.31-.17-3.28-.49-5.91-.33-2.62-.49-4.56-.49-5.82,0-.77.54-1.28,1.61-1.52.78-.18,1.88-.18,3.31,0,1.85.18,2.74.27,2.68.27,11.28,0,16.91-3.46,16.91-10.38,0-3.28-2.48-6.29-7.43-9.04-8.05-4.41-12.68-7.13-13.87-8.14-4.95-4.24-7.43-9.78-7.43-16.65,0-8.95,3.37-15.93,10.11-20.94,6.08-4.47,13.78-6.71,23.09-6.71.83,0,1.45.39,1.83,1.16.39.78,1.13,3.19,2.24,7.25,1.1,4.06,1.66,6.5,1.66,7.34,0,.66-.57,1.07-1.7,1.25-3.82.54-7.67,1.04-11.54,1.52-4.59,1.25-6.89,3.76-6.89,7.52,0,2.68,2.42,5.4,7.25,8.14,7.16,4,11.69,6.89,13.6,8.68,4.89,4.65,7.34,10.62,7.34,17.9Z"/>
      <g>
        <path class="cls-6" d="m531.2,477.57c0,7.72-.43,12.56-1.29,14.53-1.15,2.71-4.19,8.11-9.12,16.2-5.34,8.75-8.56,13.26-9.67,13.55-.33.08-1.97.12-4.93.12-2.01,0-3.18-.04-3.51-.12-1.27-.33-6.16-7.39-14.66-21.19-2.34,3.86-4.7,7.74-7.08,11.64-3.86,6.08-6.32,9.26-7.39,9.55-.33.08-1.68.12-4.06.12s-3.8-.04-4.13-.12c-1.27-.29-4.5-4.76-9.67-13.43-4.89-8.17-7.84-13.61-8.87-16.32-.95-2.46-1.42-7.31-1.42-14.53,0-6.03.21-10.16.62-12.38.2-.9.72-1.35,1.54-1.35,1.23,0,3.08.04,5.54.12,2.46.08,4.31.12,5.54.12.78,0,1.17.64,1.17,1.91,0,.9-.04,2.27-.12,4.1-.08,1.83-.12,3.19-.12,4.1,0,7.14.2,12.19.61,15.15.37,2.59,3.59,8.01,9.67,16.26.74.99,1.17,1.48,1.29,1.48s.49-.45,1.11-1.35c5.34-7.76,8.38-13.06,9.12-15.89.49-1.97.74-6.38.74-13.24,0-1.39-.08-3.47-.25-6.22-.16-2.75-.25-4.8-.25-6.16,0-.9.37-1.35,1.11-1.35h11.76c.66,0,.99.53.99,1.6,0,1.32-.06,3.29-.18,5.94-.12,2.65-.19,4.63-.19,5.94,0,7.27.12,11.47.37,12.6.25,1.13,2.18,4.35,5.79,9.67,3.61,5.32,5.69,7.98,6.22,7.98.12,0,.49-.49,1.11-1.48,5.21-7.92,8.03-13.22,8.44-15.89.37-2.22.55-5.97.55-11.27,0-1.56-.12-3.81-.37-6.74-.25-2.94-.37-5.04-.37-6.31,0-.62.41-.92,1.23-.92,1.23,0,3.06-.04,5.48-.12,2.42-.08,4.25-.12,5.48-.12.9,0,1.46.41,1.66,1.23.33,1.6.49,5.81.49,12.62Z"/>
        <path class="cls-6" d="m594.27,519.57c0,1.52-.43,2.28-1.29,2.28-1.27,0-3.2-.02-5.79-.06-2.59-.04-4.52-.06-5.79-.06-1.03,0-1.54-.68-1.54-2.03,0-1.97.07-4.95.22-8.93.14-3.98.22-6.98.22-8.99,0-1.89-.07-4.75-.22-8.59-.14-3.84-.22-6.72-.22-8.65,0-7.39-3.49-11.09-10.47-11.09-2.26,0-5.21,1.13-8.87,3.39-3.9,2.42-5.85,4.64-5.85,6.65v36.58c0,1.19-.43,1.79-1.29,1.79-1.27,0-3.18-.02-5.73-.06-2.55-.04-4.46-.06-5.73-.06-.95,0-1.42-.55-1.42-1.66v-29.75c0-4.84-.27-15.15-.8-30.92-.08-4.89-.43-12.11-1.05-21.68-.08-.49-.12-.82-.12-.99,0-.7.25-1.13.74-1.29.7-.25,3.02-.37,6.96-.37.86,0,2.16-.15,3.88-.46,1.72-.31,2.98-.46,3.76-.46.53,0,.8.39.8,1.17,0,3.86-.15,9.66-.46,17.4-.31,7.74-.46,13.54-.46,17.4,0,.95.16,1.44.49,1.48,2.09-1.76,4.8-3.9,8.13-6.41,4.02-2.5,8.27-3.76,12.75-3.76,7.72,0,13.04,2.3,15.95,6.9,2.1,3.37,3.14,8.7,3.14,16.01,0,1.27-.03,3.23-.09,5.88-.06,2.65-.09,4.61-.09,5.88,0,2.63.04,6.55.12,11.76.08,5.22.12,9.12.12,11.7Z"/>
        <path class="cls-6" d="m661.89,491.73c0,8.58-2.81,15.91-8.44,21.99-5.75,6.28-12.87,9.42-21.37,9.42s-15.68-3.12-21.43-9.36c-5.63-6.03-8.44-13.34-8.44-21.93s2.81-15.89,8.44-21.93c5.79-6.16,12.93-9.24,21.43-9.24s15.56,3.08,21.31,9.24c5.67,6,8.5,13.26,8.5,21.8Zm-12.99.12c0-5.01-1.54-9.28-4.62-12.81-3.2-3.74-7.27-5.6-12.19-5.6s-9.01,1.85-12.26,5.54c-3.08,3.57-4.62,7.86-4.62,12.87s1.56,9.2,4.68,12.81c3.28,3.82,7.35,5.73,12.19,5.73s8.95-1.91,12.19-5.73c3.08-3.61,4.62-7.88,4.62-12.81Z"/>
        <path class="cls-6" d="m686.16,436.3l-.06.8c-.9,15.27-1.35,28.39-1.35,39.36,0,4.89.08,12.2.25,21.96.16,9.75.25,17.05.25,21.9,0,.94-.33,1.42-.99,1.42h-11.76c-.74,0-1.11-.47-1.11-1.42,0-4.84.04-12.14.12-21.9.08-9.75.12-17.07.12-21.96,0-4.43-.22-11.1-.65-19.99-.43-8.89-.65-15.53-.65-19.92,0-.82.43-1.23,1.29-1.23.74,0,1.85.06,3.33.18,1.48.12,2.59.18,3.32.18.78,0,1.93-.06,3.45-.18,1.52-.12,2.65-.18,3.39-.18s1.09.33,1.05.99Z"/>
        <path class="cls-6" d="m750.52,488.65c0,3.04-1.32,5.07-3.94,6.1-1.77.66-14.47,1.87-38.12,3.63.53,3.61,2.52,6.69,5.97,9.24,3.28,2.42,6.82,3.63,10.59,3.63,6.49,0,12.44-2.09,17.86-6.28.66-.53,1.31-1.07,1.97-1.6.33,0,.54.04.65.12.1.08.87,1.51,2.31,4.28,1.44,2.77,2.15,4.26,2.15,4.47,0,.25-.33.72-.99,1.42-6.04,6.41-13.78,9.61-23.22,9.61s-17.12-2.84-22.79-8.53c-5.67-5.69-8.5-13.27-8.5-22.76,0-8.46,2.71-15.83,8.13-22.11,5.71-6.53,12.71-9.79,21-9.79,7.72,0,14.17,2.83,19.34,8.5,5.05,5.5,7.58,12.19,7.58,20.08Zm-14.66-3.76c0-3.41-1.34-6.43-4.03-9.05-2.69-2.63-5.72-3.94-9.08-3.94-3.78,0-7.13,1.52-10.07,4.56-2.94,3.04-4.4,6.45-4.4,10.22,0,.86.74,1.29,2.22,1.29,6.08,0,13.34-.62,21.8-1.85,2.38-.33,3.57-.74,3.57-1.23Z"/>
        <path class="cls-6" d="m787.96,502.76c0,6.12-2.44,11.02-7.33,14.72-4.43,3.37-9.83,5.05-16.2,5.05-2.46,0-3.86-.06-4.19-.19-.7-.33-1.05-1.33-1.05-3.02,0-.9-.11-2.26-.34-4.07-.23-1.81-.34-3.14-.34-4,0-.53.37-.88,1.11-1.05.53-.12,1.29-.12,2.28,0,1.27.12,1.89.18,1.85.18,7.76,0,11.64-2.38,11.64-7.14,0-2.26-1.7-4.33-5.11-6.22-5.54-3.04-8.72-4.9-9.55-5.6-3.41-2.92-5.11-6.73-5.11-11.46,0-6.16,2.32-10.96,6.96-14.41,4.19-3.08,9.48-4.62,15.89-4.62.57,0,1,.27,1.26.8.27.53.78,2.2,1.54,4.99.76,2.79,1.14,4.48,1.14,5.05,0,.45-.39.74-1.17.86-2.63.37-5.28.72-7.95,1.05-3.16.86-4.74,2.59-4.74,5.17,0,1.85,1.66,3.72,4.99,5.6,4.93,2.75,8.05,4.74,9.36,5.97,3.37,3.2,5.05,7.31,5.05,12.32Z"/>
        <path class="cls-6" d="m856.69,465.99c0,.17-.06.54-.19,1.11-1.6,9.4-2.4,17.51-2.4,24.33,0,.41.51,9.63,1.54,27.65l.06.86c.04,1.19-.5,1.79-1.63,1.79s-2.83.13-5.11.4c-2.28.27-3.97.4-5.08.4-.78,0-1.38-1.44-1.79-4.31-.41-2.87-.8-4.31-1.17-4.31-.25,0-1.35.8-3.33,2.4-2.42,1.97-4.68,3.47-6.77,4.5-3.24,1.64-6.49,2.46-9.73,2.46-7.97,0-14.68-3.18-20.14-9.55-5.17-6.08-7.76-13.16-7.76-21.25,0-9.12,2.61-16.65,7.82-22.6,5.46-6.2,12.65-9.3,21.56-9.3,6.28,0,11.76,2.18,16.44,6.53.7.82,1.79,2.01,3.26,3.57.12.12.25.19.37.19.25,0,.59-1.29,1.05-3.88.45-2.59,1.03-3.88,1.72-3.88,1.11,0,3.18.31,6.22.92,3.37.74,5.05,1.4,5.05,1.97Zm-15.71,25.75c0-5.05-1.5-9.38-4.5-13-3.16-3.9-7.21-5.85-12.13-5.85s-9.03,1.93-12.32,5.79c-3.16,3.7-4.74,8.05-4.74,13.06s1.58,9.28,4.74,12.93c3.28,3.82,7.39,5.73,12.32,5.73s8.83-1.95,12.07-5.85c3.04-3.65,4.56-7.92,4.56-12.81Z"/>
        <path class="cls-6" d="m882.31,436.3l-.06.8c-.9,15.27-1.35,28.39-1.35,39.36,0,4.89.08,12.2.25,21.96.16,9.75.25,17.05.25,21.9,0,.94-.33,1.42-.99,1.42h-11.76c-.74,0-1.11-.47-1.11-1.42,0-4.84.04-12.14.12-21.9.08-9.75.12-17.07.12-21.96,0-4.43-.22-11.1-.65-19.99-.43-8.89-.65-15.53-.65-19.92,0-.82.43-1.23,1.29-1.23.74,0,1.85.06,3.33.18,1.48.12,2.59.18,3.32.18.78,0,1.93-.06,3.45-.18,1.52-.12,2.65-.18,3.39-.18s1.09.33,1.05.99Z"/>
        <path class="cls-6" d="m946.67,488.65c0,3.04-1.32,5.07-3.94,6.1-1.77.66-14.47,1.87-38.12,3.63.53,3.61,2.52,6.69,5.97,9.24,3.28,2.42,6.82,3.63,10.59,3.63,6.49,0,12.44-2.09,17.86-6.28.66-.53,1.31-1.07,1.97-1.6.33,0,.54.04.65.12.1.08.87,1.51,2.31,4.28,1.44,2.77,2.15,4.26,2.15,4.47,0,.25-.33.72-.99,1.42-6.04,6.41-13.78,9.61-23.22,9.61s-17.12-2.84-22.79-8.53c-5.67-5.69-8.5-13.27-8.5-22.76,0-8.46,2.71-15.83,8.13-22.11,5.71-6.53,12.71-9.79,21-9.79,7.72,0,14.17,2.83,19.34,8.5,5.05,5.5,7.58,12.19,7.58,20.08Zm-14.66-3.76c0-3.41-1.34-6.43-4.03-9.05-2.69-2.63-5.72-3.94-9.08-3.94-3.78,0-7.13,1.52-10.07,4.56-2.94,3.04-4.4,6.45-4.4,10.22,0,.86.74,1.29,2.22,1.29,6.08,0,13.34-.62,21.8-1.85,2.38-.33,3.57-.74,3.57-1.23Z"/>
      </g>
    </g>
  </g>
</svg>