<svg viewBox="0 0 1660.71 308.93" xmlns="http://www.w3.org/2000/svg" data-name="Layer 1" id="Layer_1">
  <defs>
    <style>
      .cls-1 {
        fill: #00afaa;
      }
    </style>
  </defs>
  <g data-name="Logo T" id="Logo_T">
    <path d="M1634.13,40.86c4.47,0,8.83,1.14,13.08,3.44,4.25,2.28,7.57,5.57,9.94,9.83,2.37,4.28,3.56,8.72,3.56,13.35s-1.16,8.99-3.5,13.22c-2.34,4.23-5.62,7.52-9.84,9.86-4.22,2.34-8.64,3.5-13.25,3.5s-9.02-1.16-13.23-3.5c-4.22-2.34-7.51-5.63-9.86-9.86-2.35-4.23-3.53-8.64-3.53-13.22s1.2-9.07,3.58-13.35c2.39-4.25,5.7-7.55,9.96-9.83,4.25-2.3,8.62-3.44,13.08-3.44Zm0,4.41c-3.74,0-7.37,.96-10.91,2.87-3.54,1.93-6.31,4.65-8.31,8.23-2,3.55-3,7.26-3,11.12s.99,7.51,2.95,11.02c1.96,3.51,4.7,6.25,8.23,8.2,3.53,1.97,7.21,2.95,11.04,2.95s7.51-.98,11.04-2.95c3.53-1.95,6.26-4.69,8.22-8.2,1.95-3.51,2.93-7.19,2.93-11.02s-.99-7.57-2.97-11.12c-1.99-3.57-4.76-6.3-8.31-8.23-3.55-1.9-7.18-2.87-10.9-2.87Zm-11.67,36.92v-28.63h9.84c3.36,0,5.79,.27,7.3,.79,1.5,.54,2.7,1.46,3.6,2.77s1.34,2.72,1.34,4.2c0,2.09-.74,3.91-2.23,5.47s-3.48,2.42-5.95,2.61c1.01,.42,1.82,.93,2.43,1.52,1.15,1.13,2.56,3.02,4.23,5.68l3.49,5.61h-5.64l-2.54-4.51c-2-3.55-3.61-5.77-4.83-6.66-.85-.66-2.08-.99-3.7-.99h-2.72v12.17h-4.62Zm4.62-16.11h5.61c2.68,0,4.51-.4,5.49-1.2s1.46-1.86,1.46-3.17c0-.85-.24-1.6-.71-2.28-.47-.66-1.12-1.16-1.95-1.49s-2.39-.49-4.64-.49h-5.25v8.64Z" class="cls-1"></path>
    <polygon points="377.4 279.09 377.4 231.84 462.4 231.84 462.4 214.1 377.4 214.1 377.4 125.25 472.27 125.25 472.27 107.5 358.32 107.5 358.32 296.87 475.99 296.87 475.99 279.09 377.4 279.09" class="cls-1"></polygon>
    <polygon points="562.25 107.5 562.25 125.25 619.8 125.25 619.8 296.87 638.88 296.87 638.88 125.25 696.42 125.25 696.42 107.5 562.25 107.5" class="cls-1"></polygon>
    <path d="M1117.91,107.5v124.27c0,30.97-17.33,49.46-46.28,49.46s-46.06-18.49-46.06-49.46V107.5h-19.06v125.07c0,40.34,25.55,66.41,65.11,66.41s65.34-26.07,65.34-66.41V107.5h-19.06Z" class="cls-1"></path>
    <path d="M1331.92,239.32c23.4-11.21,36.69-33.39,36.69-61.66,0-43.27-29.24-70.16-76.29-70.16h-40.6v189.37h19.08v-49.31h21.52c7.62,0,14.66-.64,20.92-1.92l37.5,51.23h23.14l-41.95-57.56Zm-61.12-114.07h20.45c50.45,0,58,32.85,58,52.41s-7.55,52.15-58,52.15h-20.45V125.25Z" class="cls-1"></path>
    <polygon points="1497.39 279.09 1497.39 231.84 1582.37 231.84 1582.37 214.1 1497.39 214.1 1497.39 125.25 1592.25 125.25 1592.25 107.5 1478.28 107.5 1478.28 296.87 1595.96 296.87 1595.96 279.09 1497.39 279.09" class="cls-1"></polygon>
    <path d="M176.62,105.64c-25.3,0-44.85,10.62-55.75,28.72-10.84-18.11-30.32-28.72-55.51-28.72-19.2,0-35.07,6.14-46.39,17v-8.39H.02v57.22c0,.2-.02,.39-.02,.6v125.05H19.09v-124.23c0-31,17.3-49.49,46.28-49.49s45.34,17.94,45.92,48c0,.22-.03,.44-.03,.68v125.05h19.2v-125.05c0-.19-.02-.35-.02-.55,.53-30.13,17.65-48.13,46.18-48.13s46.02,18.5,46.02,49.49v124.23h19.08v-125.05c0-40.36-25.56-66.42-65.09-66.42Z" class="cls-1"></path>
    <path d="M789.81,308.93c-.34-17.98-3.07-176.62,7.4-209.61,15.29-48.09,53.49-68,64.83-72.96,17.76-7.78,33.73-10.88,47.81-13.61,10.62-2.08,19.78-3.86,27.13-7.22l12.04-5.52,1,13.21c.24,3.23,5.77,79.61-11.91,113.49-22.12,42.42-51.99,64.69-99.89,74.46l-3.68-18.07c42.42-8.67,67.69-27.47,87.22-64.93,10.7-20.5,11.46-65.57,10.51-91.48-6,1.65-12.35,2.89-18.91,4.16-13.14,2.55-28.03,5.46-43.93,12.41-9.54,4.17-41.68,20.96-54.64,61.66-8.09,25.45-7.46,155.65-6.54,203.66l-18.45,.35Z" class="cls-1"></path>
  </g>
</svg>